<?xml version="1.0" encoding="UTF-8" standalone="no"?>
<svg width="24px" height="24px" viewBox="0 0 24 24" version="1.1" xmlns="http://www.w3.org/2000/svg" xmlns:xlink="http://www.w3.org/1999/xlink">
    <!-- Generator: Sketch 3.7.2 (28276) - http://www.bohemiancoding.com/sketch -->
    <title>contact_icon</title>
    <desc>Created with Sketch.</desc>
    <defs></defs>
    <g id="Page-1" stroke="none" stroke-width="1" fill="none" fill-rule="evenodd">
        <g id="fullwidth-web-copy-20" transform="translate(-1038.000000, -402.000000)" fill="#C3CED6">
            <g id="Group-11" transform="translate(329.000000, 359.000000)">
                <g id="Group-4">
                    <path d="M728.2,57.2878 L728.2,65.8 C728.2,66.4624 727.6624,67 727,67 L710.2,67 C709.5376,67 709,66.4624 709,65.8 L709,44.2 C709,43.5376 709.5376,43 710.2,43 L727,43 C727.6624,43 728.2,43.5376 728.2,44.2 L728.2,45.2878 L733,45.2878 L733,51.2878 L733,57.2878 L728.2,57.2878 Z M711.4,64.6 L725.8,64.6 L725.8,45.4 L711.4,45.4 L711.4,64.6 Z M728.2,50.0878 L730.6,50.0878 L730.6,47.6878 L728.2,47.6878 L728.2,50.0878 Z M728.2,54.8878 L730.6,54.8878 L730.6,52.4878 L728.2,52.4878 L728.2,54.8878 Z M718.67086,56.99752 L717.87286,57.79552 C716.33806,56.26132 716.33146,53.77972 717.84886,52.23472 L718.61686,53.00272 L721.01146,50.60812 L718.61686,48.21352 L716.22226,50.60812 L716.25226,50.63812 C713.85286,53.06452 713.86006,56.97592 716.27626,59.39212 L718.67086,61.78672 L721.06546,59.39212 L718.67086,56.99752 Z" id="contact_icon"></path>
                </g>
            </g>
        </g>
    </g>
</svg>